<?xml version="1.0" encoding="UTF-8"?>
<svg width="115px" height="92px" viewBox="0 0 115 92" version="1.1" xmlns="http://www.w3.org/2000/svg" xmlns:xlink="http://www.w3.org/1999/xlink">
    <!-- Generator: Sketch 48.1 (47250) - http://www.bohemiancoding.com/sketch -->
    <title>Logo</title>
    <desc>Created with Sketch.</desc>
    <defs></defs>
    <g id="Page-1" stroke="none" stroke-width="1" fill="none" fill-rule="evenodd">
        <g id="Logo">
            <g id="LOGO" transform="translate(37.000000, 19.000000)">
                <polygon id="Path-3" fill="#2682EE" points="7 0 7 19 12 19 12 2.375"></polygon>
                <polygon id="Path-3-Copy" fill="#2682EE" points="7.2 26 -2.84217094e-13 53.84 1.2 55 12 55 12 26"></polygon>
                <path d="M0,0 L6.9375,0 L6.9375,17.7826087 C6.9375,18.3348934 7.38521525,18.7826087 7.9375,18.7826087 L28.9318301,18.7826087 C29.4841149,18.7826087 29.9318301,18.3348934 29.9318301,17.7826087 C29.9318301,17.7417617 29.9293274,17.700953 29.924336,17.6604121 L27.75,0 L37,0 L37,17.6086957 L37,54 L30.0625,54 L30.0625,26.826087 C30.0625,26.2738022 29.6147847,25.826087 29.0625,25.826087 L7.9375,25.826087 C7.38521525,25.826087 6.9375,26.2738022 6.9375,26.826087 L6.9375,54 L0,54 L0,0 Z" id="Path-2" fill="#C4D9F0"></path>
                <polygon id="Path-3-Copy" fill="#2682EE" points="37.2 0 37.2 53.8297872 30 53.8297872 31.2 55 42 55 42 2.34042553"></polygon>
            </g>
        </g>
    </g>
</svg>